<svg width="24" height="24" viewBox="0 0 24 24" fill="none" xmlns="http://www.w3.org/2000/svg">
<rect width="24" height="24" fill="#1E1E1E"/>
<g clip-path="url(#clip0_0_1)">
<rect width="1440" height="2580" transform="translate(-1287 -33)" fill="#F9FAFF"/>
<path opacity="0.09" d="M-1.32434 -239.003L-292.31 -66.3237C-301.417 -60.9194 -307 -51.1141 -307 -40.5244V300.677C-307 311.682 -300.974 321.805 -291.298 327.05L4.03287 487.164C13.0374 492.045 23.9102 491.996 32.8697 487.032L321.538 327.104C331.08 321.818 337 311.769 337 300.862V-42.6767C337 -53.3576 331.321 -63.233 322.09 -68.6054L29.0755 -239.132C19.6689 -244.606 8.03528 -244.557 -1.32434 -239.003Z" fill="#FFBB00"/>
<rect x="-1287" y="-33" width="1440" height="90" fill="white"/>
<g filter="url(#filter0_d_0_1)">
<rect x="-9" y="-9" width="42" height="42" rx="4" fill="white"/>
<rect x="-9" y="-9" width="42" height="42" rx="4" stroke="#F2B304"/>
</g>
<g clip-path="url(#clip1_0_1)">
<path d="M19.95 21C17.8667 21 15.8083 20.546 13.775 19.638C11.7417 18.73 9.89167 17.4423 8.225 15.775C6.55833 14.1083 5.271 12.2583 4.363 10.225C3.455 8.19167 3.00067 6.13333 3 4.05C3 3.75 3.1 3.5 3.3 3.3C3.5 3.1 3.75 3 4.05 3H8.1C8.33333 3 8.54167 3.07933 8.725 3.238C8.90833 3.39667 9.01667 3.584 9.05 3.8L9.7 7.3C9.73333 7.56667 9.725 7.79167 9.675 7.975C9.625 8.15833 9.53333 8.31667 9.4 8.45L6.975 10.9C7.30833 11.5167 7.704 12.1123 8.162 12.687C8.62 13.2617 9.12433 13.816 9.675 14.35C10.1917 14.8667 10.7333 15.346 11.3 15.788C11.8667 16.23 12.4667 16.634 13.1 17L15.45 14.65C15.6 14.5 15.796 14.3877 16.038 14.313C16.28 14.2383 16.5173 14.2173 16.75 14.25L20.2 14.95C20.4333 15.0167 20.625 15.1377 20.775 15.313C20.925 15.4883 21 15.684 21 15.9V19.95C21 20.25 20.9 20.5 20.7 20.7C20.5 20.9 20.25 21 19.95 21Z" fill="#FFBB00"/>
</g>
</g>
<defs>
<filter id="filter0_d_0_1" x="-19.5" y="-19.5" width="71" height="71" filterUnits="userSpaceOnUse" color-interpolation-filters="sRGB">
<feFlood flood-opacity="0" result="BackgroundImageFix"/>
<feColorMatrix in="SourceAlpha" type="matrix" values="0 0 0 0 0 0 0 0 0 0 0 0 0 0 0 0 0 0 127 0" result="hardAlpha"/>
<feOffset dx="4" dy="4"/>
<feGaussianBlur stdDeviation="7"/>
<feComposite in2="hardAlpha" operator="out"/>
<feColorMatrix type="matrix" values="0 0 0 0 0 0 0 0 0 0 0 0 0 0 0 0 0 0 0.06 0"/>
<feBlend mode="normal" in2="BackgroundImageFix" result="effect1_dropShadow_0_1"/>
<feBlend mode="normal" in="SourceGraphic" in2="effect1_dropShadow_0_1" result="shape"/>
</filter>
<clipPath id="clip0_0_1">
<rect width="1440" height="2580" fill="white" transform="translate(-1287 -33)"/>
</clipPath>
<clipPath id="clip1_0_1">
<rect width="24" height="24" fill="white"/>
</clipPath>
</defs>
</svg>
